<svg xmlns="http://www.w3.org/2000/svg" xmlns:xlink="http://www.w3.org/1999/xlink" width="24" height="24" preserveAspectRatio="xMidYMid meet" viewBox="0 0 24 24" style="-ms-transform: rotate(360deg); -webkit-transform: rotate(360deg); transform: rotate(360deg);"><path d="M12.71 8.29a1 1 0 0 0-.33-.21a1 1 0 0 0-.76 0a1 1 0 0 0-.33.21l-3 3a1 1 0 0 0 1.42 1.42l1.29-1.3V15a1 1 0 0 0 2 0v-3.59l1.29 1.3a1 1 0 0 0 1.42 0a1 1 0 0 0 0-1.42zM12 2a10 10 0 1 0 10 10A10 10 0 0 0 12 2zm0 18a8 8 0 1 1 8-8a8 8 0 0 1-8 8z" fill="#626262"/><rect x="0" y="0" width="24" height="24" fill="rgba(0, 0, 0, 0)" /></svg>